<svg width="173" height="106" viewBox="0 0 173 106" fill="none" xmlns="http://www.w3.org/2000/svg">
<path d="M38.0391 66.5234H21.2344V104H0.140625V1.625H38.1797C50.2734 1.625 59.6016 4.32031 66.1641 9.71094C72.7266 15.1016 76.0078 22.7188 76.0078 32.5625C76.0078 39.5469 74.4844 45.3828 71.4375 50.0703C68.4375 54.7109 63.8672 58.4141 57.7266 61.1797L79.875 103.016V104H57.2344L38.0391 66.5234ZM21.2344 49.4375H38.25C43.5469 49.4375 47.6484 48.1016 50.5547 45.4297C53.4609 42.7109 54.9141 38.9844 54.9141 34.25C54.9141 29.4219 53.5312 25.625 50.7656 22.8594C48.0469 20.0938 43.8516 18.7109 38.1797 18.7109H21.2344V49.4375Z" fill="#51D39F"/>
<path d="M172.477 69.8984C171.68 80.9141 167.602 89.5859 160.242 95.9141C152.93 102.242 143.273 105.406 131.273 105.406C118.148 105.406 107.812 101 100.266 92.1875C92.7656 83.3281 89.0156 71.1875 89.0156 55.7656V49.5078C89.0156 39.6641 90.75 30.9922 94.2188 23.4922C97.6875 15.9922 102.633 10.25 109.055 6.26562C115.523 2.23438 123.023 0.21875 131.555 0.21875C143.367 0.21875 152.883 3.38281 160.102 9.71094C167.32 16.0391 171.492 24.9219 172.617 36.3594H151.523C151.008 29.75 149.156 24.9688 145.969 22.0156C142.828 19.0156 138.023 17.5156 131.555 17.5156C124.523 17.5156 119.25 20.0469 115.734 25.1094C112.266 30.125 110.484 37.9297 110.391 48.5234V56.2578C110.391 67.3203 112.055 75.4062 115.383 80.5156C118.758 85.625 124.055 88.1797 131.273 88.1797C137.789 88.1797 142.641 86.7031 145.828 83.75C149.062 80.75 150.914 76.1328 151.383 69.8984H172.477Z" fill="black"/>
</svg>
