<svg width="443" height="106" viewBox="0 0 443 106" fill="none" xmlns="http://www.w3.org/2000/svg">
<path d="M38.0391 66.5234H21.2344V104H0.140625V1.625H38.1797C50.2734 1.625 59.6016 4.32031 66.1641 9.71094C72.7266 15.1016 76.0078 22.7188 76.0078 32.5625C76.0078 39.5469 74.4844 45.3828 71.4375 50.0703C68.4375 54.7109 63.8672 58.4141 57.7266 61.1797L79.875 103.016V104H57.2344L38.0391 66.5234ZM21.2344 49.4375H38.25C43.5469 49.4375 47.6484 48.1016 50.5547 45.4297C53.4609 42.7109 54.9141 38.9844 54.9141 34.25C54.9141 29.4219 53.5312 25.625 50.7656 22.8594C48.0469 20.0938 43.8516 18.7109 38.1797 18.7109H21.2344V49.4375ZM153.703 59.6328H113.203V87.0547H160.734V104H92.1094V1.625H160.594V18.7109H113.203V43.1094H153.703V59.6328Z" fill="white"/>
<path d="M253.477 69.8984C252.68 80.9141 248.602 89.5859 241.242 95.9141C233.93 102.242 224.273 105.406 212.273 105.406C199.148 105.406 188.812 101 181.266 92.1875C173.766 83.3281 170.016 71.1875 170.016 55.7656V49.5078C170.016 39.6641 171.75 30.9922 175.219 23.4922C178.688 15.9922 183.633 10.25 190.055 6.26562C196.523 2.23438 204.023 0.21875 212.555 0.21875C224.367 0.21875 233.883 3.38281 241.102 9.71094C248.32 16.0391 252.492 24.9219 253.617 36.3594H232.523C232.008 29.75 230.156 24.9688 226.969 22.0156C223.828 19.0156 219.023 17.5156 212.555 17.5156C205.523 17.5156 200.25 20.0469 196.734 25.1094C193.266 30.125 191.484 37.9297 191.391 48.5234V56.2578C191.391 67.3203 193.055 75.4062 196.383 80.5156C199.758 85.625 205.055 88.1797 212.273 88.1797C218.789 88.1797 223.641 86.7031 226.828 83.75C230.062 80.75 231.914 76.1328 232.383 69.8984H253.477ZM325.125 82.9062H288.141L281.109 104H258.68L296.789 1.625H316.336L354.656 104H332.227L325.125 82.9062ZM293.836 65.8203H319.43L306.562 27.5L293.836 65.8203ZM385.312 67.9297V104H364.219V1.625H404.156C411.844 1.625 418.594 3.03125 424.406 5.84375C430.266 8.65625 434.766 12.6641 437.906 17.8672C441.047 23.0234 442.617 28.9062 442.617 35.5156C442.617 45.5469 439.172 53.4688 432.281 59.2812C425.438 65.0469 415.945 67.9297 403.805 67.9297H385.312ZM385.312 50.8438H404.156C409.734 50.8438 413.977 49.5312 416.883 46.9062C419.836 44.2812 421.312 40.5312 421.312 35.6562C421.312 30.6406 419.836 26.5859 416.883 23.4922C413.93 20.3984 409.852 18.8047 404.648 18.7109H385.312V50.8438Z" fill="black"/>
</svg>
